<svg width="14" height="13" viewBox="0 0 14 13" fill="none" xmlns="http://www.w3.org/2000/svg">
<path d="M13.0032 6.5C13.0032 8.22391 12.3184 9.87721 11.0994 11.0962C9.88038 12.3152 8.22708 13 6.50317 13C4.77927 13 3.12597 12.3152 1.90698 11.0962C0.687993 9.87721 0.00317383 8.22391 0.00317383 6.5C0.00317383 4.77609 0.687993 3.12279 1.90698 1.90381C3.12597 0.68482 4.77927 0 6.50317 0C8.22708 0 9.88038 0.68482 11.0994 1.90381C12.3184 3.12279 13.0032 4.77609 13.0032 6.5ZM6.50317 2.84375C6.50317 2.73601 6.46037 2.63267 6.38419 2.55649C6.308 2.4803 6.20467 2.4375 6.09692 2.4375C5.98918 2.4375 5.88585 2.4803 5.80966 2.55649C5.73348 2.63267 5.69067 2.73601 5.69067 2.84375V7.3125C5.6907 7.38411 5.70965 7.45444 5.7456 7.51636C5.78156 7.57829 5.83325 7.62961 5.89542 7.66512L8.73917 9.29012C8.8325 9.34056 8.94184 9.35249 9.04385 9.32337C9.14585 9.29425 9.23242 9.22639 9.28505 9.13429C9.33768 9.04218 9.3522 8.93315 9.3255 8.83048C9.2988 8.72782 9.23301 8.63967 9.14217 8.58488L6.50317 7.07688V2.84375Z" fill="#037E8C"/>
</svg>
