<svg width="15" height="14" viewBox="0 0 15 14" fill="none" xmlns="http://www.w3.org/2000/svg">
<path d="M14.0758 4.86201L9.86063 4.24941L7.97635 0.429395C7.92489 0.324805 7.84022 0.240137 7.73563 0.188672C7.47332 0.0591797 7.15457 0.16709 7.02342 0.429395L5.13914 4.24941L0.924007 4.86201C0.807796 4.87861 0.701546 4.9334 0.620199 5.01641C0.521854 5.11749 0.467661 5.25348 0.469529 5.39449C0.471397 5.53551 0.529172 5.67002 0.63016 5.76846L3.67987 8.7418L2.95936 12.9403C2.94246 13.038 2.95327 13.1384 2.99056 13.2303C3.02784 13.3221 3.09011 13.4017 3.17031 13.4599C3.25051 13.5182 3.34542 13.5528 3.44429 13.5598C3.54316 13.5669 3.64202 13.5461 3.72967 13.4998L7.49989 11.5176L11.2701 13.4998C11.373 13.5546 11.4926 13.5729 11.6071 13.5529C11.896 13.5031 12.0902 13.2292 12.0404 12.9403L11.3199 8.7418L14.3696 5.76846C14.4526 5.68711 14.5074 5.58086 14.524 5.46465C14.5688 5.17412 14.3663 4.90518 14.0758 4.86201Z" fill="#037E8C"/>
</svg>
